# xmcd
#
# Track frame offsets:
# 150
# 915
# 19235
# 50133
# 91343
# 105800
# 123000
# 134833
# 161323
#
# Disc length: 2610 seconds
#
#
# Revision: 1
# Processed by: cddbd v1.5.1PL2 Copyright (c) Steve Scherf et al.
# Submitted via: FreeRIP 2.944 
#
DISCID=620a3009
DTITLE=Albatross - For Fans Only
DYEAR=1990
DGENRE=Bluesrock
TTITLE0=Intro
TTITLE1=Walkin' By Myself
TTITLE2=Everybody's Got The Blues
TTITLE3=Worried Blues
TTITLE4=I'm Ready
TTITLE5=Hard Hearted Woman
TTITLE6=High School Queenie
TTITLE7=Alberta
TTITLE8=Night Time People
EXTD=
EXTT0=
EXTT1=
EXTT2=
EXTT3=
EXTT4=
EXTT5=
EXTT6=
EXTT7=
EXTT8=
PLAYORDER=
